<svg width="39" height="40" viewBox="0 0 39 40" fill="none" xmlns="http://www.w3.org/2000/svg">
<g filter="url(#filter0_d_555_1525)">
<mask id="path-1-outside-1_555_1525" maskUnits="userSpaceOnUse" x="0.109375" y="0" width="38" height="38" fill="black">
<rect fill="white" x="0.109375" width="38" height="38"/>
<path fillRule="evenodd" clipRule="evenodd" d="M6.08775 1.04552C4.68518 1.14766 1.76129 1.74559 1.76129 1.74559C1.76129 1.74559 1.43972 1.83259 1.53938 1.89348C2.41204 2.42659 3.05002 2.99223 3.05002 3.23279C3.05002 3.36384 3.01179 3.37197 2.09973 3.43375C1.57712 3.46915 1.13361 3.51459 1.11422 3.53468C1.09483 3.55476 1.13539 3.74905 1.20431 3.96654C1.4774 4.82803 1.62616 6.22232 1.65518 8.19171L1.66924 9.14409L2.19087 9.40976C2.81394 9.72715 3.23922 10.0822 3.13256 10.1959C3.09353 10.2375 2.8356 10.326 2.55932 10.3926C2.28304 10.4593 1.92526 10.5725 1.76417 10.6443L1.47139 10.7747L1.50201 11.2315C1.53091 11.6625 1.54589 11.7009 1.76896 11.916C2.17135 12.304 2.49274 13.1968 2.59062 14.1986C2.67966 15.1101 2.3719 16.4346 1.87684 17.2702C1.71833 17.5379 1.71029 17.5722 1.81425 17.538C2.05954 17.4574 2.6634 17.3771 3.01934 17.3778C3.47199 17.3787 4.22142 17.5369 4.28604 17.6451C4.3622 17.7727 4.26867 17.8222 3.53158 18.0437L2.83523 18.2529L2.7846 18.5932C2.6345 19.6025 1.51244 24.966 1.29354 25.7205C1.26605 25.8152 1.28661 25.8275 1.41652 25.7937C1.64653 25.7339 2.62228 25.8836 2.83523 26.0113C3.16828 26.2111 3.11292 26.356 2.60829 26.6059C2.2164 26.8 1.39308 27.3772 1.39308 27.4579C1.39308 27.4738 1.45095 27.6042 1.52158 27.7477C1.7921 28.2968 1.95435 29.1631 1.9897 30.2464C2.02977 31.4727 1.90201 33.9434 1.73153 35.2416L1.70152 35.4702L2.18227 35.3259C3.65499 34.8842 5.75102 34.9668 7.33297 35.5289C7.87583 35.7218 8.57819 36.0715 8.85484 36.2866L9.04447 36.434L9.15254 36.0789C9.212 35.8836 9.32105 35.3924 9.395 34.9874C9.54701 34.1542 9.61789 34.0755 9.93474 34.3875C10.1667 34.616 10.7171 35.4705 10.9454 35.9568L11.1199 36.3285L11.3654 36.2938C12.1211 36.1872 13.9706 36.1152 15.4554 36.1348L17.1521 36.1571L17.2272 35.8075C17.3227 35.364 17.6385 34.4226 17.7557 34.2325C17.8049 34.1527 17.8695 34.1031 17.8993 34.1221C17.9291 34.1412 18.0384 34.44 18.1422 34.786C18.2461 35.1322 18.4715 35.7059 18.6431 36.061C18.9315 36.6576 18.9632 36.6993 19.0596 36.6091C19.2682 36.4134 20.3668 35.9244 20.9296 35.7766C22.9248 35.2524 24.8954 35.5234 26.906 36.5985L27.6568 37L28.0757 36.4515C28.6814 35.6583 29.1895 35.1084 29.3166 35.1084C29.3996 35.1084 29.4851 35.2628 29.6598 35.7281C29.7878 36.0688 29.8955 36.3542 29.8993 36.3622C29.903 36.3702 30.1805 36.2748 30.516 36.1503C31.3237 35.8505 32.6916 35.4897 33.0203 35.4897C33.4426 35.4897 33.6614 35.862 33.6741 36.602L33.6785 36.8562L34.1303 36.3597C34.3787 36.0866 34.7099 35.6658 34.8663 35.4244C35.0227 35.1831 35.1779 34.9681 35.2113 34.9468C35.2446 34.9254 35.4989 35.0084 35.7764 35.1311C36.0539 35.2539 36.3599 35.3744 36.4565 35.3989C36.6089 35.4376 36.6276 35.4277 36.5983 35.3236C36.4645 34.8479 36.1808 32.7993 35.9394 30.5654C35.7193 28.529 35.74 28.5857 35.0197 28.0502C34.4046 27.5929 34.372 27.5612 34.4415 27.4877C34.6392 27.2788 36.0099 26.9744 36.7565 26.9737C36.9506 26.9735 37.1094 26.9562 37.1094 26.9355C37.1094 26.9147 37.0128 26.6049 36.8947 26.247C36.6223 25.4214 36.4808 24.7123 36.2788 23.1599C36.1392 22.0883 36.0994 21.9043 35.9844 21.7997C35.7537 21.59 34.766 21.1438 34.2711 21.0257C33.9994 20.9609 33.7955 20.8792 33.7955 20.8351C33.7955 20.6581 35.0368 19.7382 35.5987 19.4988C35.7543 19.4326 35.8816 19.3398 35.8818 19.2927C35.8819 19.2455 35.7865 19.0453 35.6696 18.8478C35.3706 18.342 35.3106 17.9997 35.3906 17.2556C35.539 15.8744 36.0206 12.8438 36.2905 11.5928L36.4481 10.8619L35.9963 10.4272C35.7478 10.188 35.2741 9.80533 34.9437 9.57678C34.6132 9.34823 34.3523 9.12916 34.3638 9.09001C34.4013 8.96213 34.9356 8.73988 35.4636 8.63241L35.9808 8.52716L35.8751 8.20099C35.3363 6.53838 35.3874 3.84368 35.9962 1.8181C36.0613 1.60132 36.1084 1.42393 36.1007 1.42393C35.8838 1.42393 32.3874 2.23242 30.6964 2.67369C29.7538 2.91959 29.5332 2.95664 29.1929 2.92632C28.8004 2.8913 27.29 2.43917 25.4939 1.81906L24.5873 1.50598L24.1094 2.05281C23.8466 2.35362 23.4054 2.89124 23.1288 3.24753C22.8524 3.60383 22.5986 3.91296 22.5649 3.93451C22.5279 3.95821 22.5039 3.86574 22.504 3.69979C22.5044 3.41227 22.7256 1.95983 22.7839 1.86208C22.8285 1.78741 22.8041 1.78836 21.602 1.90746C19.2353 2.14192 12.5164 1.83654 10.7547 1.4144C10.5338 1.36146 10.4448 1.36076 10.4283 1.41186C10.3854 1.54526 9.72934 2.60016 9.59979 2.74405C9.41587 2.94838 9.33333 2.83741 9.1823 2.1826C9.1143 1.88789 9.01851 1.50338 8.96929 1.32815L8.87988 1.00955L7.85202 1.00072C7.2867 0.995885 6.49278 1.01603 6.08775 1.04552Z"/>
</mask>
<path fillRule="evenodd" clipRule="evenodd" d="M6.08775 1.04552C4.68518 1.14766 1.76129 1.74559 1.76129 1.74559C1.76129 1.74559 1.43972 1.83259 1.53938 1.89348C2.41204 2.42659 3.05002 2.99223 3.05002 3.23279C3.05002 3.36384 3.01179 3.37197 2.09973 3.43375C1.57712 3.46915 1.13361 3.51459 1.11422 3.53468C1.09483 3.55476 1.13539 3.74905 1.20431 3.96654C1.4774 4.82803 1.62616 6.22232 1.65518 8.19171L1.66924 9.14409L2.19087 9.40976C2.81394 9.72715 3.23922 10.0822 3.13256 10.1959C3.09353 10.2375 2.8356 10.326 2.55932 10.3926C2.28304 10.4593 1.92526 10.5725 1.76417 10.6443L1.47139 10.7747L1.50201 11.2315C1.53091 11.6625 1.54589 11.7009 1.76896 11.916C2.17135 12.304 2.49274 13.1968 2.59062 14.1986C2.67966 15.1101 2.3719 16.4346 1.87684 17.2702C1.71833 17.5379 1.71029 17.5722 1.81425 17.538C2.05954 17.4574 2.6634 17.3771 3.01934 17.3778C3.47199 17.3787 4.22142 17.5369 4.28604 17.6451C4.3622 17.7727 4.26867 17.8222 3.53158 18.0437L2.83523 18.2529L2.7846 18.5932C2.6345 19.6025 1.51244 24.966 1.29354 25.7205C1.26605 25.8152 1.28661 25.8275 1.41652 25.7937C1.64653 25.7339 2.62228 25.8836 2.83523 26.0113C3.16828 26.2111 3.11292 26.356 2.60829 26.6059C2.2164 26.8 1.39308 27.3772 1.39308 27.4579C1.39308 27.4738 1.45095 27.6042 1.52158 27.7477C1.7921 28.2968 1.95435 29.1631 1.9897 30.2464C2.02977 31.4727 1.90201 33.9434 1.73153 35.2416L1.70152 35.4702L2.18227 35.3259C3.65499 34.8842 5.75102 34.9668 7.33297 35.5289C7.87583 35.7218 8.57819 36.0715 8.85484 36.2866L9.04447 36.434L9.15254 36.0789C9.212 35.8836 9.32105 35.3924 9.395 34.9874C9.54701 34.1542 9.61789 34.0755 9.93474 34.3875C10.1667 34.616 10.7171 35.4705 10.9454 35.9568L11.1199 36.3285L11.3654 36.2938C12.1211 36.1872 13.9706 36.1152 15.4554 36.1348L17.1521 36.1571L17.2272 35.8075C17.3227 35.364 17.6385 34.4226 17.7557 34.2325C17.8049 34.1527 17.8695 34.1031 17.8993 34.1221C17.9291 34.1412 18.0384 34.44 18.1422 34.786C18.2461 35.1322 18.4715 35.7059 18.6431 36.061C18.9315 36.6576 18.9632 36.6993 19.0596 36.6091C19.2682 36.4134 20.3668 35.9244 20.9296 35.7766C22.9248 35.2524 24.8954 35.5234 26.906 36.5985L27.6568 37L28.0757 36.4515C28.6814 35.6583 29.1895 35.1084 29.3166 35.1084C29.3996 35.1084 29.4851 35.2628 29.6598 35.7281C29.7878 36.0688 29.8955 36.3542 29.8993 36.3622C29.903 36.3702 30.1805 36.2748 30.516 36.1503C31.3237 35.8505 32.6916 35.4897 33.0203 35.4897C33.4426 35.4897 33.6614 35.862 33.6741 36.602L33.6785 36.8562L34.1303 36.3597C34.3787 36.0866 34.7099 35.6658 34.8663 35.4244C35.0227 35.1831 35.1779 34.9681 35.2113 34.9468C35.2446 34.9254 35.4989 35.0084 35.7764 35.1311C36.0539 35.2539 36.3599 35.3744 36.4565 35.3989C36.6089 35.4376 36.6276 35.4277 36.5983 35.3236C36.4645 34.8479 36.1808 32.7993 35.9394 30.5654C35.7193 28.529 35.74 28.5857 35.0197 28.0502C34.4046 27.5929 34.372 27.5612 34.4415 27.4877C34.6392 27.2788 36.0099 26.9744 36.7565 26.9737C36.9506 26.9735 37.1094 26.9562 37.1094 26.9355C37.1094 26.9147 37.0128 26.6049 36.8947 26.247C36.6223 25.4214 36.4808 24.7123 36.2788 23.1599C36.1392 22.0883 36.0994 21.9043 35.9844 21.7997C35.7537 21.59 34.766 21.1438 34.2711 21.0257C33.9994 20.9609 33.7955 20.8792 33.7955 20.8351C33.7955 20.6581 35.0368 19.7382 35.5987 19.4988C35.7543 19.4326 35.8816 19.3398 35.8818 19.2927C35.8819 19.2455 35.7865 19.0453 35.6696 18.8478C35.3706 18.342 35.3106 17.9997 35.3906 17.2556C35.539 15.8744 36.0206 12.8438 36.2905 11.5928L36.4481 10.8619L35.9963 10.4272C35.7478 10.188 35.2741 9.80533 34.9437 9.57678C34.6132 9.34823 34.3523 9.12916 34.3638 9.09001C34.4013 8.96213 34.9356 8.73988 35.4636 8.63241L35.9808 8.52716L35.8751 8.20099C35.3363 6.53838 35.3874 3.84368 35.9962 1.8181C36.0613 1.60132 36.1084 1.42393 36.1007 1.42393C35.8838 1.42393 32.3874 2.23242 30.6964 2.67369C29.7538 2.91959 29.5332 2.95664 29.1929 2.92632C28.8004 2.8913 27.29 2.43917 25.4939 1.81906L24.5873 1.50598L24.1094 2.05281C23.8466 2.35362 23.4054 2.89124 23.1288 3.24753C22.8524 3.60383 22.5986 3.91296 22.5649 3.93451C22.5279 3.95821 22.5039 3.86574 22.504 3.69979C22.5044 3.41227 22.7256 1.95983 22.7839 1.86208C22.8285 1.78741 22.8041 1.78836 21.602 1.90746C19.2353 2.14192 12.5164 1.83654 10.7547 1.4144C10.5338 1.36146 10.4448 1.36076 10.4283 1.41186C10.3854 1.54526 9.72934 2.60016 9.59979 2.74405C9.41587 2.94838 9.33333 2.83741 9.1823 2.1826C9.1143 1.88789 9.01851 1.50338 8.96929 1.32815L8.87988 1.00955L7.85202 1.00072C7.2867 0.995885 6.49278 1.01603 6.08775 1.04552Z" fill="#EEE5DD"/>
<path fillRule="evenodd" clipRule="evenodd" d="M6.08775 1.04552C4.68518 1.14766 1.76129 1.74559 1.76129 1.74559C1.76129 1.74559 1.43972 1.83259 1.53938 1.89348C2.41204 2.42659 3.05002 2.99223 3.05002 3.23279C3.05002 3.36384 3.01179 3.37197 2.09973 3.43375C1.57712 3.46915 1.13361 3.51459 1.11422 3.53468C1.09483 3.55476 1.13539 3.74905 1.20431 3.96654C1.4774 4.82803 1.62616 6.22232 1.65518 8.19171L1.66924 9.14409L2.19087 9.40976C2.81394 9.72715 3.23922 10.0822 3.13256 10.1959C3.09353 10.2375 2.8356 10.326 2.55932 10.3926C2.28304 10.4593 1.92526 10.5725 1.76417 10.6443L1.47139 10.7747L1.50201 11.2315C1.53091 11.6625 1.54589 11.7009 1.76896 11.916C2.17135 12.304 2.49274 13.1968 2.59062 14.1986C2.67966 15.1101 2.3719 16.4346 1.87684 17.2702C1.71833 17.5379 1.71029 17.5722 1.81425 17.538C2.05954 17.4574 2.6634 17.3771 3.01934 17.3778C3.47199 17.3787 4.22142 17.5369 4.28604 17.6451C4.3622 17.7727 4.26867 17.8222 3.53158 18.0437L2.83523 18.2529L2.7846 18.5932C2.6345 19.6025 1.51244 24.966 1.29354 25.7205C1.26605 25.8152 1.28661 25.8275 1.41652 25.7937C1.64653 25.7339 2.62228 25.8836 2.83523 26.0113C3.16828 26.2111 3.11292 26.356 2.60829 26.6059C2.2164 26.8 1.39308 27.3772 1.39308 27.4579C1.39308 27.4738 1.45095 27.6042 1.52158 27.7477C1.7921 28.2968 1.95435 29.1631 1.9897 30.2464C2.02977 31.4727 1.90201 33.9434 1.73153 35.2416L1.70152 35.4702L2.18227 35.3259C3.65499 34.8842 5.75102 34.9668 7.33297 35.5289C7.87583 35.7218 8.57819 36.0715 8.85484 36.2866L9.04447 36.434L9.15254 36.0789C9.212 35.8836 9.32105 35.3924 9.395 34.9874C9.54701 34.1542 9.61789 34.0755 9.93474 34.3875C10.1667 34.616 10.7171 35.4705 10.9454 35.9568L11.1199 36.3285L11.3654 36.2938C12.1211 36.1872 13.9706 36.1152 15.4554 36.1348L17.1521 36.1571L17.2272 35.8075C17.3227 35.364 17.6385 34.4226 17.7557 34.2325C17.8049 34.1527 17.8695 34.1031 17.8993 34.1221C17.9291 34.1412 18.0384 34.44 18.1422 34.786C18.2461 35.1322 18.4715 35.7059 18.6431 36.061C18.9315 36.6576 18.9632 36.6993 19.0596 36.6091C19.2682 36.4134 20.3668 35.9244 20.9296 35.7766C22.9248 35.2524 24.8954 35.5234 26.906 36.5985L27.6568 37L28.0757 36.4515C28.6814 35.6583 29.1895 35.1084 29.3166 35.1084C29.3996 35.1084 29.4851 35.2628 29.6598 35.7281C29.7878 36.0688 29.8955 36.3542 29.8993 36.3622C29.903 36.3702 30.1805 36.2748 30.516 36.1503C31.3237 35.8505 32.6916 35.4897 33.0203 35.4897C33.4426 35.4897 33.6614 35.862 33.6741 36.602L33.6785 36.8562L34.1303 36.3597C34.3787 36.0866 34.7099 35.6658 34.8663 35.4244C35.0227 35.1831 35.1779 34.9681 35.2113 34.9468C35.2446 34.9254 35.4989 35.0084 35.7764 35.1311C36.0539 35.2539 36.3599 35.3744 36.4565 35.3989C36.6089 35.4376 36.6276 35.4277 36.5983 35.3236C36.4645 34.8479 36.1808 32.7993 35.9394 30.5654C35.7193 28.529 35.74 28.5857 35.0197 28.0502C34.4046 27.5929 34.372 27.5612 34.4415 27.4877C34.6392 27.2788 36.0099 26.9744 36.7565 26.9737C36.9506 26.9735 37.1094 26.9562 37.1094 26.9355C37.1094 26.9147 37.0128 26.6049 36.8947 26.247C36.6223 25.4214 36.4808 24.7123 36.2788 23.1599C36.1392 22.0883 36.0994 21.9043 35.9844 21.7997C35.7537 21.59 34.766 21.1438 34.2711 21.0257C33.9994 20.9609 33.7955 20.8792 33.7955 20.8351C33.7955 20.6581 35.0368 19.7382 35.5987 19.4988C35.7543 19.4326 35.8816 19.3398 35.8818 19.2927C35.8819 19.2455 35.7865 19.0453 35.6696 18.8478C35.3706 18.342 35.3106 17.9997 35.3906 17.2556C35.539 15.8744 36.0206 12.8438 36.2905 11.5928L36.4481 10.8619L35.9963 10.4272C35.7478 10.188 35.2741 9.80533 34.9437 9.57678C34.6132 9.34823 34.3523 9.12916 34.3638 9.09001C34.4013 8.96213 34.9356 8.73988 35.4636 8.63241L35.9808 8.52716L35.8751 8.20099C35.3363 6.53838 35.3874 3.84368 35.9962 1.8181C36.0613 1.60132 36.1084 1.42393 36.1007 1.42393C35.8838 1.42393 32.3874 2.23242 30.6964 2.67369C29.7538 2.91959 29.5332 2.95664 29.1929 2.92632C28.8004 2.8913 27.29 2.43917 25.4939 1.81906L24.5873 1.50598L24.1094 2.05281C23.8466 2.35362 23.4054 2.89124 23.1288 3.24753C22.8524 3.60383 22.5986 3.91296 22.5649 3.93451C22.5279 3.95821 22.5039 3.86574 22.504 3.69979C22.5044 3.41227 22.7256 1.95983 22.7839 1.86208C22.8285 1.78741 22.8041 1.78836 21.602 1.90746C19.2353 2.14192 12.5164 1.83654 10.7547 1.4144C10.5338 1.36146 10.4448 1.36076 10.4283 1.41186C10.3854 1.54526 9.72934 2.60016 9.59979 2.74405C9.41587 2.94838 9.33333 2.83741 9.1823 2.1826C9.1143 1.88789 9.01851 1.50338 8.96929 1.32815L8.87988 1.00955L7.85202 1.00072C7.2867 0.995885 6.49278 1.01603 6.08775 1.04552Z" stroke="#754A2C" strokeWidth="2" strokeLinejoin="round" mask="url(#path-1-outside-1_555_1525)"/>
</g>
<defs>
<filter id="filter0_d_555_1525" x="0.109375" y="0" width="38" height="40" filterUnits="userSpaceOnUse" colorInterpolationFilters="sRGB">
<feFlood floodOpacity="0" result="BackgroundImageFix"/>
<feColorMatrix in="SourceAlpha" type="matrix" values="0 0 0 0 0 0 0 0 0 0 0 0 0 0 0 0 0 0 127 0" result="hardAlpha"/>
<feOffset dy="2"/>
<feComposite in2="hardAlpha" operator="out"/>
<feColorMatrix type="matrix" values="0 0 0 0 0.458824 0 0 0 0 0.290196 0 0 0 0 0.172549 0 0 0 1 0"/>
<feBlend mode="normal" in2="BackgroundImageFix" result="effect1_dropShadow_555_1525"/>
<feBlend mode="normal" in="SourceGraphic" in2="effect1_dropShadow_555_1525" result="shape"/>
</filter>
</defs>
</svg>
