<svg width="430" height="932" viewBox="0 0 430 932" fill="none" xmlns="http://www.w3.org/2000/svg">
<g clipPath="url(#clip0_399_1167)">
<path d="M447.6 736.1C442.3 737 436.4 742.5 433.4 747.9C407.5 794.6 401.5 849.3 387.2 900.7C371.6 956.9 345.7 1010.3 336 1067.7C331.7 1093.2 330.6 1119.4 324.5 1144.5C318.4 1169.7 306.3 1194.7 285.1 1209.5C251.3 1233.1 201.2 1226.7 171.5 1255.3C153.3 1272.8 147.3 1300.8 153.2 1325.4C157.8 1344.3 168.7 1361.1 182.6 1374.6C187.9 1379.7 195.3 1389.5 202.6 1382.9C207.9 1378.1 207.6 1368.2 206 1362C199.8 1338.1 182.8 1313.8 192.3 1291C199 1274.8 217.1 1266.4 234.4 1263.2C251.7 1260.1 269.6 1260.7 286.4 1255.6C319.3 1245.4 341.8 1214.3 352.5 1181.6C363 1149 364 1114.1 368 1080C375.3 1018.4 392.5 958.4 409.7 898.8C419.9 863.6 430 828.3 443.4 794.2C449.2 779.3 455.8 764.2 456.6 748.2C456.8 744.9 456.6 741.2 454.4 738.7C452.5 736.4 450.1 735.7 447.6 736.1Z" fill="white" fill-opacity="0.08"/>
<path d="M643.3 1887.6C652.6 1909.3 685.4 1896.3 677.3 1874.1C675.7 1869.8 674.3 1865.5 673 1861.2C661.7 1823 652.7 1784.1 645.7 1744.9C631.7 1665.9 626 1585.6 625.9 1505.5C625.8 1346.8 647.6 1188.9 674.1 1032.7C690.4 936.6 707.1 832.2 661.2 746.2C632.3 692.1 580.4 649.6 566.1 590C561.4 570.4 561.1 549.7 554.8 530.5C548.5 511.3 534 492.7 514 490.2C496.6 488.1 480.3 498.4 466.8 509.5C406.3 559.2 368.8 630.6 325 695.6C281.2 760.5 224.3 823.9 147.9 841.2C90.2 854.2 16.9 845 -14.9 894.9C-50.9 951.5 5.39996 1023.7 -3.05176e-05 1090.6C-6.00003 1164.1 -81.1 1208 -131.8 1261.6C-193.5 1326.9 -223 1417.9 -226.5 1507.7C-230 1597.5 -209.3 1686.5 -181.3 1771.9C-155.6 1850 -123.4 1933.7 -149.3 2011.7C-166.9 2064.8 -210.8 2111.4 -207.1 2167.3C-204.3 2209.8 -174.8 2256.8 -200.5 2290.8C-212.2 2306.3 -231.9 2312.7 -250.2 2319.1C-268.5 2325.5 -288.1 2333.7 -297.4 2350.6C-306.7 2367.5 -297.5 2394.7 -278.1 2394.9C-270.8 2395 -264.1 2391.3 -257.7 2387.8C-212.1 2362.6 -161.9 2331.7 -150.4 2280.8C-137.7 2224.4 -178.7 2167.8 -173 2110.3C-165.3 2033.6 -88.3 1979.2 -106.9 1897.3C-130.6 1793.1 -174.2 1699 -181.6 1590.4C-189.3 1477.9 -164.2 1358.5 -89.5 1274C-63.4 1244.4 -31.9 1219.9 -6.30002 1189.8C19.3 1159.8 39.4 1121.9 36.1 1082.6C31.5 1028.5 -15.8 976.6 4.79996 926.4C18.5 892.9 57.8 877.5 93.9 874.4C130 871.3 166.9 876.7 202.1 868.7C266.7 853.9 312.9 796.9 344 738.4C375.1 679.9 397.2 615.6 439.4 564.5C451.2 550.2 465.2 536.7 483 531.3C500.8 525.9 522.8 531 532.1 547C538 557.2 537.9 569.5 539 581.2C547 664.9 620.9 727.2 646.6 807.2C668.9 876.4 653.1 951.4 639.3 1022.8C588.8 1282.4 565 1552 620.4 1810.7C625.2 1832.4 632 1861.2 643.3 1887.6Z" fill="white" fill-opacity="0.08"/>
<path d="M577.3 1213.5C568.8 1210.5 558.9 1216.7 554.6 1224.8C550 1233.4 549.6 1243.4 547.8 1253C538 1307.2 485.2 1349.2 485.7 1404.2C485.9 1420.2 490.7 1435.7 493 1451.5C495.3 1467.3 494.8 1484.6 485.6 1497.7C476.4 1510.8 456 1516.7 443.9 1506.3C433.5 1497.4 433.2 1481.6 434.3 1468C440.7 1390.8 466.4 1315.3 508.4 1250.2C510 1247.8 511.6 1245.3 511.9 1242.4C512.6 1235.9 505.8 1230.6 499.3 1230.6C492.8 1230.6 486.9 1234.3 481.9 1238.4C431.4 1278.9 429.2 1353 411.6 1415.3C364.4 1582.5 192.4 1682.4 109.8 1835.2C103 1847.8 92.6001 1862.9 78.6001 1859.8C68.3001 1857.5 62.7001 1845.3 64.2001 1834.8C65.7001 1824.3 72.3 1815.4 78.8 1807.1C112.4 1764.2 149.8 1724.1 178.4 1677.7C207.3 1630.7 227.2 1577 266.3 1537.9C293.6 1510.6 329 1491.7 352.4 1461C380.1 1424.6 386.8 1377 396 1332.2C412.9 1250.1 441 1170.7 473.2 1093.3C498.8 1031.7 527.4 963 503.4 900.8C498.2 887.2 489.7 873.8 476.3 868.1C462.9 862.4 444.3 867.8 440.2 881.8C436.4 894.9 445.9 907.6 451.6 920C467.9 955.1 453.9 996 441.6 1032.7C420.6 1095.2 404.8 1159.5 394.4 1224.6C384.2 1287.9 378.6 1353.6 348.9 1410.4C319.2 1467.2 256.8 1513.2 194.1 1500.3C181.1 1497.7 161.6 1497.2 161.1 1510.4C160.9 1514.5 163.2 1518.3 165.7 1521.6C174.8 1533.5 188.3 1542.3 194.3 1556C200.3 1569.7 191.9 1590.8 177.2 1588.5C171.4 1587.6 166.7 1583.3 162.5 1579C102.8 1518.5 66.0001 1439.7 28.6001 1363.3C25.3001 1356.5 19.6001 1348.5 12.2001 1350.3C4.10007 1352.3 3.70006 1363.6 5.50006 1371.6C20.1001 1435.8 63.9001 1488.6 96.0001 1546.1C128.1 1603.6 148.1 1677.2 113.8 1733.4C92.5 1768.3 52.1001 1792.9 44.6001 1833.1C40.2001 1856.5 48.1001 1881.9 38.5001 1903.6C27.4001 1929 -1.79993 1938.7 -24.3999 1950.9C-35.5999 1957 -47.3999 1963.7 -55.2999 1974.1C-60.6999 1981.2 -74.6999 2010.6 -55.2999 2009.7C-44.8999 2009.3 -28.3999 1996.2 -19.3999 1991.4C-2.99993 1982.7 13.4 1974 29.8 1965.2C60.7001 1948.8 91.5 1932.3 122.3 1915.8C134.4 1909.4 146.8 1902.7 155.4 1892.1C172.8 1870.9 170.9 1841.4 175.1 1815.8C179.9 1786.6 195.5 1767.1 214 1745.2C223.6 1733.8 232.6 1722 241.5 1710.1C259.9 1685.5 277.5 1660.2 297.1 1636.5C333.5 1592.6 380.1 1552.8 436.3 1543.5C471.5 1537.7 515.8 1539.9 532.6 1508.4C550.9 1473.9 516.9 1434.6 515.3 1395.6C512.9 1336.9 582.6 1297 588.3 1238.6C589.2 1229.2 587.3 1217.9 578.8 1213.8C578.2 1213.8 577.7 1213.7 577.3 1213.5Z" fill="white" fill-opacity="0.08"/>
<path d="M324.9 1285.8C323.7 1284.7 322.2 1283.8 320.5 1283.5C315.4 1282.4 310.5 1285.7 306.6 1289.2C271.7 1320 262.3 1370.1 236.5 1408.9C226.3 1424.2 211 1438.8 192.7 1437.9C179.5 1437.3 168.1 1428.6 159 1419C140.8 1399.7 128.9 1375.6 117.2 1351.9C101.3 1319.6 85.0003 1286 84.3003 1250.1C83.7003 1218.6 95.1003 1188.3 100.8 1157.3C107.4 1121.9 106.5 1085.1 98.2003 1050.1C91.5003 1021.6 81.8003 986.5 103.8 967.2C121 952.2 149.2 957.8 166 973.2C189.2 994.5 195.1 1032.2 179.6 1059.6C174.4 1068.8 166.9 1080 172.7 1088.9C179.5 1099.5 196.4 1093.5 205.1 1084.4C226.6 1061.9 232.5 1026.8 222.7 997.3C212.8 967.8 188.7 944.1 160.2 931.5C127.3 916.9 82.8003 919.3 62.0003 948.7C48.5003 967.6 48.0003 993 52.8003 1015.7C57.6003 1038.4 67.1003 1059.9 72.0003 1082.6C82.2003 1129.4 71.9003 1180.4 44.2003 1219.5C12.4003 1264.5 -38.4997 1291.4 -79.6997 1328C-100.7 1346.6 -119.9 1369.2 -125.7 1396.7C-134.1 1436.3 -113 1475.5 -93.5997 1511C-74.1997 1546.5 -55.1997 1587.5 -67.7997 1626C-74.2997 1645.9 -88.4997 1662.2 -98.6997 1680.6C-125.8 1729.2 -114.1 1779.1 -107.8 1831.1C-107.2 1835.9 -106.6 1840.9 -103.7 1844.9C-95.4997 1856.2 -75.6997 1848.9 -70.3997 1835.9C-65.0997 1823 -68.6997 1808.3 -70.4997 1794.5C-75.3997 1755.6 -63.8997 1714.9 -39.1997 1684.4C-23.4997 1665 -1.89972 1647.8 2.10028 1623.1C5.60028 1601.5 -5.69974 1580.5 -16.5997 1561.5C-31.6997 1535.2 -46.7997 1509 -61.8997 1482.7C-73.1997 1463.1 -84.7997 1442.1 -84.3997 1419.5C-83.6997 1379.8 -47.5997 1351 -14.1997 1329.5C0.400253 1320.2 16.7003 1310.7 33.8003 1313C50.9003 1315.3 64.2003 1328.8 74.3003 1342.8C95.3003 1371.9 108.7 1406.4 132.9 1432.9C157 1459.4 198.3 1476.3 229 1457.6C252.3 1443.4 261 1414.6 271.7 1389.5C283.2 1362.6 298.9 1337.6 318.1 1315.6C322.4 1310.7 327 1305.6 328.5 1299.3C329.6 1294.5 328.2 1289 324.9 1285.8Z" fill="white" fill-opacity="0.08"/>
<path d="M591.9 900.6C590.6 895 588.9 889.5 586.9 884.1C575.4 854 552.3 829.5 540.6 799.5C523.9 756.7 532.1 707.3 516 664.2C512.3 654.2 506.9 644.3 498.1 638.4C487.8 631.5 474.1 631.2 462.4 635.1C450.7 639.1 440.6 646.9 431.7 655.5C386 699.3 364.8 762.6 341.5 819.9C314.5 886.2 288.3 952.9 269.1 1021.9C259 1058.1 250.8 1095.7 254.6 1133.1C255.5 1142 258.4 1152.5 267 1155.1C273.8 1157.2 281.2 1152.9 285 1146.9C288.8 1141 289.9 1133.7 291 1126.7C301.8 1058.5 320.8 991.9 339.7 925.4C355.3 870.7 371 815.9 393.2 763.5C404.9 736 418.5 708.9 437.2 685.6C441.8 679.8 447.1 674 454.3 672C464.2 669.2 475.1 674.8 481.2 683.2C487.3 691.6 489.5 702.1 491.1 712.3C496.4 748.1 494.8 785.6 508.7 819C522.4 852 550.3 878.7 558 913.5C563.4 937.9 558.2 963.2 553 987.7C543.9 1030.7 534.8 1073.6 525.6 1116.6C522.7 1130.3 519.8 1144.7 523.8 1158.1C527.8 1171.5 541.4 1183.2 555 1180C571.9 1176.1 576.9 1154.9 578.7 1137.6C583.5 1090.1 588.3 1042.6 593.1 995C596.1 963.6 599.1 931 591.9 900.6Z" fill="white" fill-opacity="0.08"/>
<path d="M470.6 403.5C469.4 403.1 468.1 402.7 466.9 402.4C428.8 392.6 387.4 407.1 357.6 432.8C327.8 458.5 308.1 493.9 293.2 530.3C278.3 566.7 267.6 604.7 252.1 640.8C238.1 673.3 219.7 707 192 730.2C178.2 741.8 161.8 750.4 143.9 753.2C120.4 756.9 98.6 761.2 75.7 768.7C71.7 770 67.7 771.3 63.7 772.6C38.6 780.9 14 791.3 -8.69998 805C-56.1 833.6 -95.9 879.8 -103.7 934.6C-110.4 981.2 -93.7 1028.5 -97.8 1075.4C-101.3 1115.5 -120.5 1154 -150.5 1180.9C-198 1223.5 -269.9 1237.2 -306 1289.8C-332.9 1329 -332.8 1381.7 -318 1426.9C-308.4 1456.4 -292.5 1484.6 -268.5 1504.3C-261.2 1510.3 -248.3 1514.3 -244.1 1505.9C-242.8 1503.3 -243 1500.2 -243.3 1497.3C-249.6 1441.3 -310.5 1396.6 -300 1341.2C-292.3 1300.6 -250.1 1277.8 -213.7 1258.4C-177 1238.8 -141.2 1216.6 -112.3 1186.8C-83.4 1157 -61.7 1118.6 -58.2 1077.2C-55 1039.9 -66.4 1002.8 -65.6 965.4C-64 893.7 -12.4 825.8 56.3 805.1C97.8 792.6 143.4 795.9 183.1 778.5C244.4 751.5 273.5 685.8 294.8 626.6C309.8 585 323.2 542.2 347.3 505.1C371.4 468 408.6 436.7 452.5 431.3C459.2 430.5 466.2 430.2 472.1 426.8C478 423.5 482.1 415.8 478.9 409.9C477.2 406.6 474 404.7 470.6 403.5Z" fill="white" fill-opacity="0.08"/>
<path d="M643.3 687.6C652.6 709.3 685.4 696.3 677.3 674.1C675.7 669.8 674.3 665.5 673 661.2C661.7 623 652.7 584.1 645.7 544.9C631.7 465.9 626 385.6 625.9 305.5C625.8 146.8 647.6 -11.1 674.1 -167.3C690.4 -263.4 707.1 -367.8 661.2 -453.8C632.3 -507.9 580.4 -550.4 566.1 -610C561.4 -629.6 561.1 -650.3 554.8 -669.5C548.5 -688.7 534 -707.3 514 -709.8C496.6 -711.9 480.3 -701.6 466.8 -690.5C406.3 -640.8 368.8 -569.4 325 -504.4C281.2 -439.5 224.3 -376.1 147.9 -358.8C90.2 -345.8 16.9 -355 -14.9 -305.1C-50.9 -248.5 5.39996 -176.3 -3.05176e-05 -109.4C-6.00003 -35.9 -81.1 8 -131.8 61.6C-193.5 126.9 -223 217.9 -226.5 307.7C-230 397.5 -209.3 486.5 -181.3 571.9C-155.6 650 -123.4 733.7 -149.3 811.7C-166.9 864.8 -210.8 911.4 -207.1 967.3C-204.3 1009.8 -174.8 1056.8 -200.5 1090.8C-212.2 1106.3 -231.9 1112.7 -250.2 1119.1C-268.5 1125.5 -288.1 1133.7 -297.4 1150.6C-306.7 1167.6 -297.5 1194.7 -278.1 1194.9C-270.8 1195 -264.1 1191.3 -257.7 1187.8C-212.1 1162.6 -161.9 1131.7 -150.4 1080.8C-137.7 1024.3 -178.7 967.8 -173 910.3C-165.3 833.6 -88.3 779.2 -106.9 697.3C-130.6 593.1 -174.2 499 -181.6 390.4C-189.3 277.9 -164.2 158.5 -89.5 74C-63.4 44.4 -31.9 19.9 -6.30002 -10.2C19.3 -40.2 39.4 -78.1 36.1 -117.4C31.5 -171.5 -15.8 -223.4 4.79996 -273.6C18.5 -307.1 57.8 -322.5 93.9 -325.6C130 -328.7 166.9 -323.3 202.1 -331.3C266.7 -346.1 312.9 -403.1 344 -461.6C375.1 -520.1 397.2 -584.4 439.4 -635.5C451.2 -649.8 465.2 -663.3 483 -668.7C500.7 -674.1 522.8 -669 532.1 -653C538 -642.8 537.9 -630.5 539 -618.8C547 -535.1 620.9 -472.8 646.6 -392.8C668.9 -323.6 653.1 -248.6 639.3 -177.2C588.8 82.4 565 352 620.4 610.7C625.2 632.4 632 661.2 643.3 687.6Z" fill="white" fill-opacity="0.08"/>
<path d="M447.6 736.1C442.3 737 436.4 742.5 433.4 747.9C407.5 794.6 401.5 849.3 387.2 900.7C371.6 956.9 345.7 1010.3 336 1067.7C331.7 1093.2 330.6 1119.4 324.5 1144.5C318.4 1169.7 306.3 1194.7 285.1 1209.5C251.3 1233.1 201.2 1226.7 171.5 1255.3C153.3 1272.8 147.3 1300.8 153.2 1325.4C157.8 1344.3 168.7 1361.1 182.6 1374.6C187.9 1379.7 195.3 1389.5 202.6 1382.9C207.9 1378.1 207.6 1368.2 206 1362C199.8 1338.1 182.8 1313.8 192.3 1291C199 1274.8 217.1 1266.4 234.4 1263.2C251.7 1260.1 269.6 1260.7 286.4 1255.6C319.3 1245.4 341.8 1214.3 352.5 1181.6C363 1149 364 1114.1 368 1080C375.3 1018.4 392.5 958.4 409.7 898.8C419.9 863.6 430 828.3 443.4 794.2C449.2 779.3 455.8 764.2 456.6 748.2C456.8 744.9 456.6 741.2 454.4 738.7C452.5 736.4 450.1 735.7 447.6 736.1Z" fill="white" fill-opacity="0.08"/>
<path d="M447.6 -463.9C442.3 -463 436.4 -457.5 433.4 -452.1C407.5 -405.4 401.5 -350.7 387.2 -299.3C371.6 -243.1 345.7 -189.7 336 -132.3C331.7 -106.8 330.6 -80.6001 324.5 -55.5001C318.4 -30.3001 306.3 -5.30008 285.1 9.49991C251.3 33.0999 201.2 26.6999 171.5 55.2999C153.3 72.7999 147.3 100.8 153.2 125.4C157.8 144.3 168.7 161.1 182.6 174.6C187.9 179.7 195.3 189.5 202.6 182.9C207.9 178.1 207.6 168.2 206 162C199.8 138.1 182.8 113.8 192.3 90.9999C199 74.7999 217.1 66.3999 234.4 63.1999C251.7 60.0999 269.6 60.6998 286.4 55.5999C319.3 45.3998 341.8 14.2999 352.5 -18.4001C363 -51.0001 364 -85.9001 368 -120C375.3 -181.6 392.5 -241.6 409.7 -301.2C419.9 -336.4 430 -371.7 443.4 -405.8C449.2 -420.7 455.8 -435.8 456.6 -451.8C456.8 -455.1 456.6 -458.8 454.4 -461.3C452.5 -463.6 450.1 -464.3 447.6 -463.9Z" fill="white" fill-opacity="0.08"/>
<path d="M577.3 13.4999C568.8 10.4999 558.9 16.6999 554.6 24.7999C550 33.3999 549.6 43.3999 547.8 52.9999C538 107.2 485.2 149.2 485.7 204.2C485.9 220.2 490.7 235.7 493 251.5C495.3 267.3 494.8 284.6 485.6 297.7C476.4 310.8 456 316.7 443.9 306.3C433.5 297.4 433.2 281.6 434.3 268C440.7 190.8 466.4 115.3 508.4 50.1999C510 47.7999 511.6 45.2999 511.9 42.3999C512.6 35.8999 505.8 30.5999 499.3 30.5999C492.8 30.5999 486.9 34.2999 481.9 38.3999C431.4 78.8999 429.2 153 411.6 215.3C364.4 382.5 192.4 482.4 109.8 635.2C103 647.8 92.6001 662.9 78.6001 659.8C68.3001 657.5 62.7001 645.3 64.2001 634.8C65.7001 624.3 72.3 615.4 78.8 607.1C112.4 564.2 149.8 524.1 178.4 477.7C207.3 430.7 227.2 377 266.3 337.9C293.6 310.6 329 291.7 352.4 261C380.1 224.6 386.8 177 396 132.2C412.9 50.0999 441 -29.3001 473.2 -106.7C498.8 -168.3 527.4 -237 503.4 -299.2C498.2 -312.8 489.7 -326.2 476.3 -331.9C462.9 -337.6 444.3 -332.2 440.2 -318.2C436.4 -305.1 445.9 -292.4 451.6 -280C467.9 -244.9 453.9 -204 441.6 -167.3C420.6 -104.8 404.8 -40.5002 394.4 24.5999C384.2 87.8998 378.6 153.6 348.9 210.4C319.2 267.2 256.8 313.2 194.1 300.3C181.1 297.7 161.6 297.2 161.1 310.4C160.9 314.5 163.2 318.3 165.7 321.6C174.8 333.5 188.3 342.3 194.3 356C200.3 369.7 191.9 390.8 177.2 388.5C171.4 387.6 166.7 383.3 162.5 379C102.8 318.5 66.0001 239.7 28.6001 163.3C25.3001 156.5 19.6001 148.5 12.2001 150.3C4.10007 152.3 3.70006 163.6 5.50006 171.6C20.1001 235.8 63.9001 288.6 96.0001 346.1C128.1 403.6 148.1 477.2 113.8 533.4C92.5 568.3 52.1001 592.9 44.6001 633.1C40.2001 656.5 48.1001 681.9 38.5001 703.6C27.4001 729 -1.79993 738.7 -24.3999 750.9C-35.5999 757 -47.3999 763.7 -55.2999 774.1C-60.6999 781.2 -74.6999 810.6 -55.2999 809.7C-44.8999 809.3 -28.3999 796.2 -19.3999 791.4C-2.99993 782.7 13.4 774 29.8 765.2C60.7001 748.8 91.5 732.3 122.3 715.8C134.4 709.4 146.8 702.7 155.4 692.1C172.8 670.9 170.9 641.4 175.1 615.8C179.9 586.6 195.5 567.1 214 545.2C223.6 533.8 232.6 522 241.5 510.1C259.9 485.5 277.5 460.2 297.1 436.5C333.5 392.6 380.1 352.8 436.3 343.5C471.5 337.7 515.8 339.9 532.6 308.4C550.9 273.9 516.9 234.6 515.3 195.6C512.9 136.9 582.6 96.9998 588.3 38.5999C589.2 29.1999 587.3 17.8999 578.8 13.7999C578.2 13.7999 577.7 13.6999 577.3 13.4999Z" fill="white" fill-opacity="0.08"/>
<path d="M324.9 85.8C323.7 84.7 322.2 83.8 320.5 83.5C315.4 82.4 310.5 85.7 306.6 89.2C271.7 120 262.3 170.1 236.5 208.9C226.3 224.2 211 238.8 192.7 237.9C179.5 237.3 168.1 228.6 159 219C140.8 199.7 128.9 175.6 117.2 151.9C101.3 119.6 85.0003 85.9999 84.3003 50.0999C83.7003 18.5999 95.1003 -11.7 100.8 -42.7C107.4 -78.1 106.5 -114.9 98.2003 -149.9C91.5003 -178.4 81.8003 -213.5 103.8 -232.8C121 -247.8 149.2 -242.2 166 -226.8C189.2 -205.5 195.1 -167.8 179.6 -140.4C174.4 -131.2 166.9 -120 172.7 -111.1C179.5 -100.5 196.4 -106.5 205.1 -115.6C226.6 -138.1 232.5 -173.2 222.7 -202.7C212.8 -232.2 188.7 -255.9 160.2 -268.5C127.3 -283.1 82.8003 -280.7 62.0003 -251.3C48.5003 -232.4 48.0003 -207 52.8003 -184.3C57.6003 -161.6 67.1003 -140.1 72.0003 -117.4C82.2003 -70.6001 71.9003 -19.6 44.2003 19.5C12.4003 64.5 -38.4997 91.4 -79.6997 128C-100.7 146.6 -119.9 169.2 -125.7 196.7C-134.1 236.3 -113 275.5 -93.5997 311C-74.1997 346.5 -55.1997 387.5 -67.7997 426C-74.2997 445.9 -88.4997 462.2 -98.6997 480.6C-125.8 529.2 -114.1 579.1 -107.8 631.1C-107.2 635.9 -106.6 640.9 -103.7 644.9C-95.4997 656.2 -75.6997 648.9 -70.3997 635.9C-65.0997 623 -68.6997 608.3 -70.4997 594.5C-75.3997 555.6 -63.8997 514.9 -39.1997 484.4C-23.4997 465 -1.89972 447.8 2.10028 423.1C5.60028 401.5 -5.69974 380.5 -16.5997 361.5C-31.6997 335.2 -46.7997 309 -61.8997 282.7C-73.1997 263.1 -84.7997 242.1 -84.3997 219.5C-83.6997 179.8 -47.5997 151 -14.1997 129.5C0.400253 120.2 16.7003 110.7 33.8003 113C50.9003 115.3 64.2003 128.8 74.3003 142.8C95.3003 171.9 108.7 206.4 132.9 232.9C157 259.4 198.3 276.3 229 257.6C252.3 243.4 261 214.6 271.7 189.5C283.2 162.6 298.9 137.6 318.1 115.6C322.4 110.7 327 105.6 328.5 99.3C329.6 94.5 328.2 89 324.9 85.8Z" fill="white" fill-opacity="0.08"/>
<path d="M-39.5999 728.5C-59.3999 728.1 -43.3999 695.9 -39.9999 687.7C-31.1999 666.2 -24.3999 643.8 -19.6999 621C-13.7999 592.2 -10.6999 561.2 7.50007 538.1C20.4001 521.7 40.0001 510.7 50.2001 492.4C59.0001 476.5 59.3001 457.1 54.9001 439.5C50.6001 421.9 42.0001 405.7 33.6001 389.7C21.1001 365.9 8.90007 341.9 -3.09993 317.9C-7.29993 309.5 -9.99994 296.5 -1.19994 293C4.10006 290.9 9.90007 294.4 14.0001 298.2C25.0001 308.4 31.9001 322.1 38.5001 335.5C51.4001 361.9 63.6001 388.6 73.6001 416.2C82.0001 439.4 88.7001 464.7 82.7001 488.6C76.0001 515.1 55.0001 535.1 40.9001 558.5C12.5001 605.5 12.3001 665.4 -16.1999 712.3C-20.3999 719.3 -25.9999 726.4 -33.9999 728C-36.1999 728.4 -37.9999 728.5 -39.5999 728.5Z" fill="white" fill-opacity="0.08"/>
</g>
<defs>
<clipPath id="clip0_399_1167">
<rect width="431" height="932" fill="white"/>
</clipPath>
</defs>
</svg>
