<svg width="48" height="48" viewBox="0 0 48 48" fill="none" xmlns="http://www.w3.org/2000/svg">
<path d="M6.20926 24.3816C6.09615 24.2685 6.09615 24.0851 6.20926 23.972L24.0359 6.14529C24.0902 6.09098 24.1639 6.06046 24.2407 6.06046C24.3175 6.06046 24.3912 6.09098 24.4455 6.14529L42.2722 23.972C42.3265 24.0263 42.357 24.1 42.357 24.1768C42.357 24.2536 42.3265 24.3273 42.2722 24.3816L24.4455 42.2082C24.3324 42.3214 24.149 42.3214 24.0359 42.2082L6.20926 24.3816Z" fill="#38ACFF" stroke="#042360" strokeWidth="0.579273" strokeLinejoin="round"/>
<circle cx="29.191" cy="28.6353" r="0.495185" fill="#2594E4"/>
<circle cx="29.191" cy="30.6153" r="0.495185" fill="#2594E4"/>
<circle cx="27.211" cy="32.5953" r="0.495185" fill="#2594E4"/>
<circle cx="25.7252" cy="34.5767" r="0.495185" fill="#2594E4"/>
<circle cx="26.7159" cy="27.1497" r="0.495185" fill="#2594E4"/>
<circle cx="31.6671" cy="25.6634" r="0.495185" fill="#2594E4"/>
<circle cx="28.944" cy="25.911" r="0.742778" fill="#2594E4"/>
<circle cx="26.9635" cy="30.3683" r="0.742778" fill="#2594E4"/>
<path d="M6.41406 24.1768L24.2407 6.3501L42.0674 24.1768L6.41406 24.1768Z" fill="#63BDFF"/>
<path d="M23.9936 8.82617L17.3086 23.1865" stroke="#88CDFF" strokeWidth="0.579273" strokeLinecap="round"/>
<path d="M15.3274 24.1768L24.2407 42.0034L6.41404 24.1768L24.2407 6.3501L15.3274 24.1768Z" fill="#46CAF3"/>
<path d="M10.3755 24.1768L24.2407 42.0034L6.41404 24.1768L24.2407 6.3501L10.3755 24.1768Z" fill="#C1E9FF"/>
<path d="M15.3274 24.1768L24.2407 6.3501L6.41404 24.1768L15.3274 24.1768Z" fill="#68DBFF"/>
<path d="M10.3755 24.1768L24.2407 6.3501L6.41404 24.1768L10.3755 24.1768Z" fill="#D8F1FF"/>
<path d="M33.1541 24.1768L24.2407 42.0034L42.0674 24.1768L24.2407 6.3501L33.1541 24.1768Z" fill="#4E5CDE"/>
<path d="M33.1541 24.1768L24.2407 6.3501L42.0674 24.1768L33.1541 24.1768Z" fill="#6A78F5"/>
<path d="M38.1059 24.1768L24.2407 42.0034L42.0674 24.1768L24.2407 6.3501L38.1059 24.1768Z" fill="#2D88F3"/>
<path d="M38.1059 24.1768L24.2407 6.3501L42.0674 24.1768L38.1059 24.1768Z" fill="#52A1FE"/>
<path d="M15.8227 15.7593L8.89014 23.1871" stroke="white" strokeWidth="0.579273" strokeLinecap="round"/>
</svg>
